<?xml version="1.0" encoding="UTF-8" standalone="no"?>
<svg
   xmlns:dc="http://purl.org/dc/elements/1.1/"
   xmlns:cc="http://creativecommons.org/ns#"
   xmlns:rdf="http://www.w3.org/1999/02/22-rdf-syntax-ns#"
   xmlns:svg="http://www.w3.org/2000/svg"
   xmlns="http://www.w3.org/2000/svg"
   xmlns:xlink="http://www.w3.org/1999/xlink"
   xmlns:sodipodi="http://sodipodi.sourceforge.net/DTD/sodipodi-0.dtd"
   xmlns:inkscape="http://www.inkscape.org/namespaces/inkscape"
   width="174.51755mm"
   height="157.9772mm"
   viewBox="0 0 174.51755 157.9772"
   version="1.1"
   id="svg894"
   sodipodi:docname="gobLogo.svg"
   inkscape:version="1.0.2 (e86c870879, 2021-01-15, custom)">
  <defs
     id="defs888">
    <linearGradient
       inkscape:collect="always"
       id="linearGradient2932">
      <stop
         style="stop-color:#006cb8;stop-opacity:1;"
         offset="0"
         id="stop2928" />
      <stop
         style="stop-color:#39b7cf;stop-opacity:1"
         offset="1"
         id="stop2930" />
    </linearGradient>
    <linearGradient
       inkscape:collect="always"
       id="linearGradient2924">
      <stop
         style="stop-color:#ef3f44;stop-opacity:1;"
         offset="0"
         id="stop2920" />
      <stop
         style="stop-color:#ef733f;stop-opacity:1"
         offset="1"
         id="stop2922" />
    </linearGradient>
    <pattern
       patternUnits="userSpaceOnUse"
       width="755.97925"
       height="633.12217"
       patternTransform="translate(436.29608,-755.13245)"
       id="pattern1819">
      <rect
         style="opacity:1;fill:none;fill-opacity:1;fill-rule:evenodd;stroke:#23749d;stroke-width:7.40787;stroke-linejoin:round;stroke-opacity:1;paint-order:stroke markers fill"
         id="rect1817"
         width="748.57135"
         height="625.71429"
         x="3.7039371"
         y="3.7039371" />
    </pattern>
    <linearGradient
       inkscape:collect="always"
       xlink:href="#linearGradient2924"
       id="linearGradient2926"
       x1="157.77615"
       y1="166.59769"
       x2="201.86617"
       y2="129.8586"
       gradientUnits="userSpaceOnUse" />
    <linearGradient
       inkscape:collect="always"
       xlink:href="#linearGradient2932"
       id="linearGradient2934"
       x1="19.33053"
       y1="151.63058"
       x2="91.416527"
       y2="72.641991"
       gradientUnits="userSpaceOnUse" />
    <pattern
       patternUnits="userSpaceOnUse"
       width="298.30637"
       height="107.08676"
       patternTransform="translate(296.95358,37.754987)"
       id="pattern851">
      <text
         xml:space="preserve"
         style="font-size:48.7782px;line-height:1.25;font-family:'Arial Rounded MT Bold';-inkscape-font-specification:'Arial Rounded MT Bold, ';fill:#ffffff;stroke-width:1.21945"
         x="-3.5011699"
         y="35.511868"
         id="text1477"
         transform="scale(0.99663247,1.0033789)"><tspan
           sodipodi:role="line"
           id="tspan1475"
           x="-3.5011699"
           y="35.511868"
           style="fill:#ffffff;stroke-width:1.21945">Ministerio de</tspan><tspan
           sodipodi:role="line"
           x="-3.5011699"
           y="96.484627"
           style="fill:#ffffff;stroke-width:1.21945"
           id="tspan1479">Energía</tspan></text>
    </pattern>
    <pattern
       patternUnits="userSpaceOnUse"
       width="331.80059"
       height="28.620702"
       patternTransform="translate(298.69508,534.89791)"
       id="pattern1816">
      <text
         xml:space="preserve"
         style="font-size:38.5342px;line-height:1.25;font-family:'Arial Rounded MT Bold';-inkscape-font-specification:'Arial Rounded MT Bold, ';fill:#ffffff;stroke-width:0.963356"
         x="-1.8815515"
         y="28.053932"
         id="text1485"
         transform="scale(0.99663247,1.0033789)"><tspan
           sodipodi:role="line"
           x="-1.8815515"
           y="28.053932"
           style="fill:#ffffff;stroke-width:0.963356"
           id="tspan1483">Gobierno de Chile</tspan></text>
    </pattern>
  </defs>
  <sodipodi:namedview
     id="base"
     pagecolor="#ffffff"
     bordercolor="#666666"
     borderopacity="1.0"
     inkscape:pageopacity="0.0"
     inkscape:pageshadow="2"
     inkscape:zoom="0.98994949"
     inkscape:cx="174.03527"
     inkscape:cy="277.98851"
     inkscape:document-units="mm"
     inkscape:current-layer="layer1"
     inkscape:document-rotation="0"
     showgrid="false"
     inkscape:window-width="1920"
     inkscape:window-height="986"
     inkscape:window-x="-11"
     inkscape:window-y="-11"
     inkscape:window-maximized="1"
     fit-margin-top="0"
     fit-margin-left="0"
     fit-margin-right="0"
     fit-margin-bottom="0" />
  <metadata
     id="metadata891">
    <rdf:RDF>
      <cc:Work
         rdf:about="">
        <dc:format>image/svg+xml</dc:format>
        <dc:type
           rdf:resource="http://purl.org/dc/dcmitype/StillImage" />
        <dc:title />
      </cc:Work>
    </rdf:RDF>
  </metadata>
  <g
     inkscape:label="Layer 1"
     inkscape:groupmode="layer"
     id="layer1"
     transform="translate(-19.33053,-72.641991)">
    <g
       id="g2902">
      <rect
         style="opacity:1;fill:url(#linearGradient2926);fill-opacity:1;fill-rule:evenodd;stroke:none;stroke-width:2.6102;stroke-linejoin:round;paint-order:stroke markers fill"
         id="rect1457"
         width="174.51755"
         height="157.9772"
         x="19.33053"
         y="72.641991" />
      <rect
         style="opacity:1;fill:url(#linearGradient2934);fill-opacity:1;fill-rule:evenodd;stroke:none;stroke-width:1.67757;stroke-linejoin:round;paint-order:stroke markers fill"
         id="rect1473"
         width="72.085999"
         height="157.9772"
         x="19.33053"
         y="72.641991" />
      <rect
         style="fill:url(#pattern851);stroke:none"
         transform="matrix(0.26458333,0,0,0.26458333,19.33053,72.641991)"
         width="298.30637"
         height="107.08676"
         x="296.95358"
         y="37.754986"
         id="rect856" />
      <rect
         style="stroke:none;fill:url(#pattern1816)"
         transform="matrix(0.26458333,0,0,0.26458333,19.33053,72.641991)"
         width="331.80059"
         height="28.620702"
         x="298.69508"
         y="534.89791"
         id="rect1820" />
      <g
         transform="matrix(0.03527778,0,0,-0.03527778,174.4234,157.54049)"
         fill="#000000"
         stroke="none"
         id="g1791">
        <g
           id="g2806">
          <path
             d="m -3393.9764,2101.9518 c -6.053,-2.1617 -13.4032,-6.4854 -16.8621,-9.0795 -3.0265,-3.0266 -15.1326,-4.756 -26.3741,-3.8913 -44.9656,2.1618 -82.581,-29.8329 -82.581,-70.4748 0,-15.1327 0,-15.1327 -11.6737,-8.6473 -6.9178,3.4589 -24.2123,6.0531 -40.642,6.0531 -25.077,0 -30.6977,-1.7295 -46.695,-13.4032 -53.6129,-38.4802 -41.9391,-117.6024 19.8885,-138.3557 23.78,-7.7826 63.9896,-3.0266 76.528,8.6472 l 10.3767,9.9443 5.6208,-10.3767 c 3.0264,-5.1883 6.053,-10.809 6.4854,-12.1061 0.4323,-1.2971 2.1618,-6.4854 3.8912,-11.2414 1.7294,-5.1883 7.3501,-11.6738 12.9709,-14.7003 5.6207,-3.0265 10.809,-10.809 12.1061,-16.8621 1.297,-6.4854 8.6472,-18.5915 16.4298,-26.8064 9.0795,-9.0796 13.8355,-18.1592 12.9707,-24.2122 -0.8647,-7.7826 1.2971,-9.9444 8.6473,-9.9444 12.1061,0 9.9443,-2.1618 -5.6207,-6.0531 -9.0796,-2.1617 -11.2415,-1.2971 -9.512,3.459 1.7295,4.3236 -3.0265,7.7825 -14.2679,11.2414 -9.0796,3.0265 -21.1858,8.2148 -27.2387,12.1061 -5.6208,3.4589 -20.3211,6.9178 -32.4272,7.3501 -11.6737,0.4324 -34.5889,2.1619 -50.1539,4.3236 -28.1036,3.0266 -28.9682,3.0266 -36.7507,-8.6472 -11.6738,-16.8621 -30.6977,-36.7507 -35.0213,-36.7507 -2.1618,0 -7.3502,7.7825 -11.2414,16.8621 -9.5119,21.1857 -38.0478,47.5598 -55.3423,51.0186 -15.9974,3.0266 -14.2679,11.6738 3.0265,13.4033 15.9974,2.1618 27.6712,12.5384 27.6712,25.0769 0,8.6473 -3.8913,11.2414 -22.4828,16.8622 -25.077,7.3501 -40.642,19.4562 -51.4511,39.3449 -3.8912,7.7824 -9.5119,12.1061 -13.8355,11.2413 -4.756,-0.8647 -9.0796,3.0266 -11.6738,9.9443 -6.053,16.4298 -15.565,17.7269 -28.9682,4.756 -11.2414,-11.6737 -11.2414,-11.6737 -3.8913,-24.2123 6.0531,-10.809 6.4855,-12.9708 1.2971,-12.9708 -3.4589,0 -8.6472,3.0266 -11.6738,6.4854 -3.0265,3.459 -8.2148,6.4854 -11.6737,6.4854 -3.0265,0 -6.9178,-3.0264 -8.2149,-6.4854 -1.7294,-3.4588 -5.1883,-6.4854 -8.6472,-6.4854 -11.6737,0 -6.053,-16.8621 8.2149,-24.2122 l 13.8355,-7.3502 -13.4032,-3.8912 c -15.9973,-3.8913 -25.5093,-13.8356 -22.0504,-22.4828 1.7295,-4.756 5.6207,-5.6207 14.7003,-3.0265 9.5119,2.5941 16.4297,0.4323 32.4271,-9.512 11.6738,-7.3502 20.7534,-15.9974 20.7534,-19.8886 0,-3.8913 10.809,-22.4829 23.7798,-41.5068 12.9709,-18.5915 23.7799,-36.3183 23.7799,-39.3449 0,-3.0265 -25.9417,-26.374 -57.0717,-51.8834 -67.0161,-54.4775 -126.682,-111.9815 -133.1674,-128.8437 -2.1618,-6.4854 -4.3236,-16.862 -4.3236,-22.4828 0,-8.2148 -2.1618,-10.809 -7.3501,-9.5119 -6.0531,1.2971 -7.3502,5.1883 -6.4854,19.8885 1.2971,16.8622 0.8647,18.1593 -9.512,18.1593 -8.6472,0 -11.6738,-2.5942 -13.4032,-11.6738 -1.7294,-6.9177 -4.3236,-15.1326 -6.4855,-19.0239 -1.7294,-3.8913 -1.7294,-9.5119 0.4324,-12.9708 1.7295,-3.4589 2.5942,-10.3767 0.8647,-15.565 -1.7294,-7.7826 -0.4323,-9.9443 6.0531,-9.9443 4.3237,0 10.8091,-2.5942 13.4032,-5.1884 4.3237,-4.3236 7.3502,-4.3236 13.8356,0 14.7003,9.0796 25.0769,6.0531 36.7508,-10.809 16.4297,-24.2123 14.7002,-40.2097 -6.4855,-57.0717 -14.7003,-11.6738 -17.2945,-15.9974 -17.2945,-30.6978 0,-9.0795 3.0266,-28.1034 6.4854,-41.939 3.8913,-13.8356 7.7826,-36.3184 9.512,-49.7216 1.7294,-15.9973 5.1884,-27.2388 10.3767,-31.9947 10.8091,-9.9443 10.3767,-15.9974 -1.2971,-21.1858 -22.9151,-9.9442 -8.2148,-45.3979 16.4298,-39.3448 6.053,1.7294 12.1061,6.9178 13.4032,11.2414 2.5941,9.9443 5.6207,10.809 15.9973,3.0265 6.9178,-5.1883 6.0531,-6.053 -6.9178,-12.5385 -22.9151,-10.809 -63.5571,-17.7268 -87.7693,-14.7003 -49.2893,6.0531 -71.3397,18.5916 -71.3397,41.5067 0,12.9709 5.6207,17.2945 10.809,8.6473 4.3236,-7.3502 26.3741,-4.756 33.7242,3.4588 10.8091,11.6738 9.0796,25.077 -4.3236,35.4537 -23.7799,18.5915 -66.1513,-2.5942 -66.1513,-33.2918 0,-12.9709 -1.2971,-14.268 -12.1061,-14.268 -14.2679,0 -26.8064,-11.6737 -26.8064,-24.6446 0,-12.9708 10.809,-19.8886 26.3741,-16.8621 10.3766,1.7295 16.4297,0 28.9681,-9.9443 19.0239,-14.7003 47.9922,-26.3741 65.719,-26.3741 9.9443,0 13.4032,-2.1617 15.565,-10.3766 5.6207,-22.4828 27.6712,-31.1301 38.0478,-14.268 3.8913,6.0531 3.0265,9.0796 -2.5942,13.4033 -12.5384,9.0796 -9.0795,13.4032 16.4298,19.4563 13.4032,3.0264 36.3183,11.6737 51.0187,19.8885 19.4562,10.3767 29.8329,13.4033 40.2096,12.1062 14.2679,-2.1618 20.321,-9.9443 7.7825,-9.9443 -9.512,0 -7.7825,-5.1883 5.6207,-15.565 9.9443,-8.2149 10.809,-11.2415 6.9178,-17.7269 -5.6207,-9.0796 -0.4324,-22.9152 8.2149,-22.9152 3.0265,0 7.3501,-4.3236 9.5119,-9.5119 4.756,-10.809 21.1857,-15.565 29.833,-8.2148 3.4588,3.0265 9.9443,3.0265 20.7533,-0.4324 13.8355,-3.8913 17.7268,-3.4589 31.5624,4.7559 15.565,9.0796 15.565,9.0796 27.2388,0.4324 6.4854,-4.3236 21.618,-10.3767 33.2918,-13.4032 12.1062,-2.5942 27.2388,-7.7825 33.7242,-11.2414 10.3767,-5.6207 14.2679,-5.6207 22.9151,-0.8647 5.6208,3.0265 10.3767,6.9178 10.3767,8.6472 0,1.7295 6.4855,4.3237 14.268,6.0531 7.3501,1.7294 22.4828,7.7825 32.8594,13.4032 l 18.5916,10.3766 8.6472,-10.809 c 11.2414,-14.7002 32.8595,-14.7002 46.2627,-0.4323 11.2414,11.6738 10.3767,26.8064 -2.1618,38.9125 -9.9444,10.3767 -42.8038,9.0796 -60.9629,-2.1618 -8.215,-5.1884 -15.5651,-8.6472 -16.4298,-7.7825 -0.8647,0.8647 -0.4324,11.2414 0.8647,22.9152 l 2.5942,20.7533 15.565,-2.5941 c 8.6472,-1.7295 35.4536,-3.8913 60.0983,-5.6208 31.13,-1.7294 43.2361,-3.8912 39.7772,-7.3501 -2.1618,-2.1618 -4.3236,-9.9443 -4.3236,-16.4298 0,-6.9177 -2.5942,-15.9973 -5.1884,-20.7533 -3.8912,-6.0531 -4.3236,-10.3767 -1.2971,-14.7003 2.5942,-3.0265 9.512,-13.8356 16.4298,-23.7799 15.9973,-24.2122 28.9682,-24.2122 44.9656,0 6.9178,9.9443 13.8356,20.7534 16.4297,23.7799 3.0266,4.3236 2.5942,8.6472 -1.297,14.7003 -2.5942,4.756 -5.1884,13.8356 -5.1884,20.7533 0,6.4855 -2.1618,14.268 -4.3236,16.4298 -3.4589,3.4589 8.6472,5.6207 39.7773,7.3501 24.6445,1.7295 51.451,4.3237 60.0982,5.6208 15.1327,2.5941 15.5651,2.1617 15.9974,-10.8091 0,-7.3501 1.7294,-17.2945 3.0265,-22.0505 3.4589,-10.809 -0.8647,-10.809 -17.2944,0 -18.5916,12.1062 -50.5864,11.6738 -62.6925,-0.8646 -11.2414,-12.5386 -10.809,-25.5094 1.2971,-37.1832 14.268,-13.4031 34.589,-12.5385 44.9656,1.7295 l 8.2149,10.8091 19.0239,-10.3767 c 10.809,-6.0531 25.9417,-12.1062 33.7242,-13.8356 7.3502,-1.7294 13.8356,-4.3236 13.8356,-6.0531 0,-1.7294 4.7559,-5.6207 10.3766,-8.6472 8.6473,-4.756 12.5385,-4.756 22.9152,0.8647 6.4855,3.4589 22.0504,8.6472 33.7242,11.2414 12.1062,3.0265 26.8064,9.0796 33.2918,13.4032 11.6738,8.6472 11.6738,8.6472 27.2388,-0.4324 13.8356,-8.2148 17.7269,-8.6472 31.5625,-4.7559 10.809,3.4589 17.2943,3.4589 20.7532,0.4324 8.6473,-6.9179 25.077,-2.5942 29.833,7.7825 2.1618,5.1883 7.7825,10.3767 12.1061,11.6737 6.9178,1.7294 7.7825,4.756 5.6207,17.2945 -2.5942,13.4032 -1.2971,15.9973 8.6472,22.4828 9.9444,6.9178 10.3767,8.2149 4.3237,12.5384 -9.9444,7.3502 -8.6473,9.512 7.3501,12.1062 10.3767,1.2971 20.321,-1.7295 39.7773,-12.1062 14.2679,-7.7825 35.886,-16.4297 47.5597,-19.4562 27.6712,-6.9178 31.9948,-11.2414 21.1857,-19.0239 -6.4854,-5.1884 -7.3501,-7.7825 -3.4588,-14.268 10.3766,-16.8621 32.4271,-8.2148 38.0478,14.268 2.1618,8.2149 5.6207,10.3766 15.565,10.3766 17.7268,0 46.695,11.6738 65.2866,26.3741 13.4032,9.9443 18.5916,11.6738 31.9948,9.512 11.2413,-1.7294 17.2944,-0.8648 19.8885,3.4589 10.8091,17.2944 -2.1617,38.4801 -23.3475,38.4801 -10.3766,0 -11.6737,1.7295 -11.6737,14.268 0,18.1591 -18.5915,36.7507 -39.3449,40.2096 -28.5359,4.756 -49.7216,-25.5093 -30.6977,-42.8038 10.3767,-9.512 29.4006,-9.512 34.5889,-0.4324 6.0531,10.8091 10.8091,-0.4324 7.7825,-17.2944 -3.4588,-17.7269 -18.1591,-26.3741 -55.7746,-33.2919 -32.8594,-6.053 -76.0956,-0.4323 -102.0373,12.9709 -14.268,7.7825 -14.7003,8.2148 -5.6207,12.9708 11.6737,6.4854 12.5385,6.0531 15.1327,-3.8912 1.2971,-4.3236 7.3501,-9.512 13.4032,-11.2414 21.618,-5.1884 38.4801,23.3475 21.618,37.1831 -3.4589,3.4588 -14.7002,5.6207 -24.6446,5.6207 h -18.1592 l 1.7295,21.6181 c 0.4324,11.6737 -0.8647,23.3475 -3.4589,25.9416 -2.5942,2.5942 -4.756,9.0796 -4.756,14.2679 0,12.9709 -12.1061,24.6447 -22.9152,21.6181 -4.7559,-1.2971 -13.8355,0.4324 -20.3209,3.8913 -12.1062,6.4854 -21.6181,2.1618 -21.6181,-9.512 0,-3.0265 -1.7295,-5.6207 -3.8913,-5.6207 -7.7825,0 -14.2679,-24.6446 -9.5119,-34.1565 7.3501,-13.4032 20.321,-19.0239 30.6976,-13.4032 9.512,5.1883 11.6738,24.2122 3.459,27.2387 -3.0266,0.8648 -4.3237,3.0265 -3.0266,4.756 4.7559,5.1883 17.2944,-2.5941 23.7799,-15.565 6.9177,-13.4032 5.1883,-39.7772 -2.5942,-44.5333 -2.5942,-1.7293 -9.9443,1.2971 -16.8621,6.0531 -6.9177,5.1884 -14.7003,9.0796 -17.2945,9.0796 -2.1618,0 -6.053,2.5942 -7.7825,5.6207 -6.053,9.512 -41.5066,37.6154 -47.9921,37.6154 -3.0265,0 -9.5119,4.3237 -13.8355,9.512 -7.3502,9.512 -7.3502,9.9444 0.4323,15.5651 4.3236,3.0264 8.2148,8.6471 8.2148,12.1061 0,3.4588 4.3237,6.053 11.2415,6.053 13.4032,0 22.9151,10.809 23.3475,25.077 0,9.512 9.9443,13.4032 15.1327,5.1883 1.2971,-2.1618 6.4854,-4.3236 11.2413,-4.3236 4.756,0 13.4033,-3.0266 19.0239,-6.9178 8.6473,-5.6207 12.1062,-6.053 16.8622,-2.1618 4.7559,3.8913 8.2148,3.8913 14.7002,0 13.8356,-8.6472 23.78,2.1618 20.321,21.1857 -1.297,8.2149 -4.3236,18.1592 -6.4854,22.0505 -16.8621,30.2653 -57.5041,138.7881 -53.6128,142.6793 0.8647,0.8647 1.7294,-0.4324 1.7294,-3.0265 0,-9.512 16.4298,-5.1884 25.5093,6.9178 l 9.0797,11.6737 -3.0266,-20.3211 c -2.5941,-22.0503 3.8913,-35.8859 14.2679,-31.9946 4.3237,1.7294 5.6207,-3.459 4.7561,-20.321 -0.8648,-20.3211 0,-22.4829 9.0795,-23.78 5.1883,-0.8646 9.512,0.8648 9.512,3.8913 0,3.0265 0.8647,4.3236 2.1618,3.4589 0.8647,-1.2971 -0.8648,-11.6737 -4.3236,-23.3476 -8.6473,-28.1034 -8.2149,-37.183 2.1618,-39.7772 10.3767,-2.5942 10.809,-5.6207 2.1618,-25.5093 -7.3502,-17.7269 -4.756,-25.0769 6.9178,-22.0504 9.9443,2.5942 10.3767,-2.1619 0.8647,-28.5359 -6.9178,-19.0239 -6.9178,-20.7533 0,-27.6711 6.9178,-6.9178 7.7825,-6.4854 18.5915,3.4588 l 11.6738,10.3768 -3.0265,-10.8091 c -12.1061,-42.3714 -11.6738,-51.8834 1.7294,-51.8834 11.6738,0 15.9974,8.2149 28.1036,54.0452 36.3183,139.6527 39.7772,335.9449 7.7824,451.8178 -17.2944,63.9895 -30.6976,92.9578 -51.8834,114.1435 -37.183,37.1831 -80.4192,15.565 -69.1778,-34.1566 3.4589,-15.1327 3.0265,-21.6181 -3.4589,-35.0213 -4.756,-9.9443 -6.4854,-21.1857 -5.1883,-29.8329 2.1618,-12.9709 1.2971,-14.268 -10.809,-16.8622 -21.1858,-4.3235 -27.6712,-3.4588 -21.6181,2.5942 5.6206,5.6207 6.9177,28.5359 2.5942,39.7773 -1.2971,3.8912 -6.0532,6.9178 -10.3768,6.9178 -6.9178,0 -6.4854,2.1618 3.0266,20.7534 7.3502,14.2678 9.9443,24.6446 8.2148,35.0212 -1.297,8.2149 0,18.1592 3.4589,23.7799 3.4589,4.756 7.3502,18.5916 9.0797,30.2653 3.0265,20.7534 3.0265,21.1857 -8.2149,18.1592 -9.512,-2.1618 -11.2415,-1.297 -11.2415,6.053 0,4.7561 -3.0265,8.6473 -6.4854,8.6473 -3.4589,0 -6.4854,-2.1618 -6.4854,-4.756 0,-2.1618 -2.1618,-3.0265 -4.3236,-1.7294 -2.5942,1.7294 -3.4589,4.7559 -2.1618,6.9178 1.7294,2.1618 -0.4324,5.1883 -4.3236,6.9177 -4.3236,1.2971 -9.0797,0 -11.2414,-3.4588 -3.0266,-4.756 -3.8913,-4.756 -3.8913,0.8646 0,3.8913 -2.5941,9.512 -5.6207,12.1062 -4.756,3.4589 -9.0795,0.8647 -19.4563,-12.5384 -7.7825,-9.0797 -13.8355,-18.5917 -13.8355,-20.321 0,-2.1619 -6.9178,-7.3502 -15.1326,-11.6739 -8.2149,-4.7559 -15.1327,-10.809 -15.1327,-13.4032 0,-3.0265 -5.6207,-6.4854 -12.1061,-7.7824 -26.3741,-5.1884 -28.9682,-41.0744 -2.5942,-38.9126 14.7003,1.2971 23.3475,-5.1884 23.3475,-17.2945 0,-4.7559 4.3236,-13.8355 9.9444,-19.4562 5.1883,-6.0531 6.9178,-9.512 4.3236,-7.7826 -8.6473,4.7561 -40.2097,-5.6206 -51.8834,-17.2944 -8.6473,-8.6472 -10.3767,-13.8356 -8.6473,-25.5093 2.1619,-12.1061 0.4324,-15.5651 -7.7825,-21.1857 -22.9151,-15.1327 -58.3688,-2.5942 -58.3688,20.321 0,5.6206 3.0266,21.1857 6.4854,35.0213 6.0531,22.9151 6.0531,26.374 0,35.4536 -13.4032,20.7533 -56.6393,11.6737 -97.2813,-19.4563 -17.2944,-13.4032 -52.7481,-60.5306 -49.2892,-65.719 1.2971,-2.1618 -0.8647,-3.8912 -4.756,-3.8912 -4.756,0 -6.0531,2.5941 -3.8912,10.3767 1.2971,5.6207 0.4323,11.6737 -2.1619,12.9708 -2.5942,1.7295 3.459,10.809 14.7004,22.0505 10.809,10.3766 19.4562,20.7533 19.4562,23.3475 0,2.5942 4.756,11.6737 10.809,20.321 6.0531,9.0796 9.9444,19.0239 9.0797,22.0504 -1.2971,3.4589 0,9.5119 2.5941,14.268 5.1884,7.7824 5.6207,7.7824 18.1592,-1.2971 15.565,-11.2414 62.6924,-12.5385 81.7163,-2.5942 28.9683,15.565 59.6659,70.0426 46.6951,83.0134 -2.5942,2.5942 -4.756,10.3767 -4.756,16.8621 0,32.4271 -29.4006,55.3423 -70.0425,55.3423 -12.5386,-0.4323 -27.6712,-3.0265 -33.7242,-6.053 -9.0797,-5.1884 -11.6739,-5.1884 -21.1858,2.1617 -12.1061,9.9444 -20.321,10.3767 -25.0769,2.1619 -2.1619,-3.8913 -3.459,1.7294 -3.459,13.8355 0,45.3979 -26.374,70.4749 -73.9338,69.6102 -13.8355,0 -30.2653,-2.1618 -35.886,-4.3237 z m 226.9898,-99.443 c 4.756,-7.7826 -5.1883,-13.4033 -11.2414,-6.0531 -5.6207,6.4854 -17.2944,9.0796 -17.2944,3.4589 0,-2.1618 3.0265,-7.3501 6.4854,-11.6738 3.4589,-4.7559 6.4854,-11.6737 6.0531,-15.1326 0,-6.0531 -0.4325,-6.0531 -2.5942,-0.4324 -3.8913,10.3767 -19.4563,25.9417 -25.9417,25.9417 -3.4589,0 -4.756,2.1618 -3.4589,4.3236 3.4589,6.0531 44.1009,5.6207 47.9921,-0.4323 z m -379.181,-19.0239 c 12.9708,-11.2414 24.2122,-36.7507 20.7533,-46.6951 -0.8647,-3.0266 -4.3236,-0.4324 -7.3501,6.4854 -6.0531,12.9709 -25.9417,22.9152 -38.9126,19.4563 -4.7559,-1.2971 -7.7825,-0.4324 -6.053,1.7295 1.2971,2.1617 9.512,3.8912 18.1592,3.8912 l 15.9973,0.4323 -12.5385,10.8091 c -12.5384,11.2414 -22.9151,12.1061 -43.6684,3.8913 l -8.6473,-3.459 8.6473,6.9178 c 13.4032,10.8091 38.0478,9.0796 53.6128,-3.4588 z m -38.4802,-25.5094 c 0,-0.8647 -3.0265,-3.0265 -6.9178,-4.3236 -3.4589,-1.2971 -5.1883,-0.8647 -3.8912,1.7294 2.5942,4.3237 10.809,6.0531 10.809,2.5942 z m 20.7533,-32.8594 c 5.1884,-5.1884 9.512,-9.9444 9.512,-11.2415 0,-5.6207 -9.512,-19.0239 -13.4032,-19.0239 -2.5942,0 -2.5942,3.4589 0.8648,9.0796 3.8912,7.3502 3.0264,10.809 -5.1884,19.4563 -11.6738,12.5385 -5.1884,13.8356 8.2148,1.7295 z m 221.3691,-20.321 c 0,-2.1619 -3.0265,-7.3502 -6.4854,-11.6738 -9.0796,-12.1062 -8.2149,-16.8621 2.1618,-11.2414 10.8091,5.6206 11.2414,-0.4324 0.4324,-13.4033 l -7.7825,-9.9442 -5.6207,10.3766 c -4.756,8.6473 -4.3237,12.5385 2.1618,24.6447 7.3501,12.9708 15.1326,19.0239 15.1326,11.2414 z m -58.8011,-24.6446 c 10.809,-4.3237 15.1326,-9.512 17.2944,-19.8887 3.8913,-20.321 3.0266,-34.5889 -1.7294,-34.5889 -2.1618,0 -4.3237,6.053 -4.3237,12.9708 0,8.2149 -2.5941,14.268 -7.3501,15.9974 -6.4854,2.5942 -6.4854,3.0265 0.8647,5.6207 6.9178,2.5942 5.6207,4.3236 -8.6472,14.2679 -19.0239,12.9708 -17.7268,14.7003 3.8913,5.6208 z m 404.6903,-11.6739 c 0,-6.9177 -6.4854,-3.8912 -14.7003,7.3502 l -8.2148,11.2415 11.6738,-7.3502 c 6.053,-4.3237 11.2413,-9.0796 11.2413,-11.2415 z m -417.2288,-2.1617 c 12.9708,-9.0796 2.1618,-6.9178 -15.1327,3.0265 -11.2414,6.4854 -12.5385,7.7825 -4.3236,5.6207 6.0531,-1.7294 14.7003,-5.6207 19.4563,-8.6472 z m 529.6429,-5.1884 c 0,-1.7294 -3.8913,-5.6207 -8.6473,-8.6472 -9.5119,-5.6207 -11.6737,-1.2971 -3.4589,6.9178 6.0531,6.0531 12.1062,6.9178 12.1062,1.7294 z m -864.7231,-5.1883 c 0,-2.1618 -4.756,-4.3236 -10.3766,-4.3236 -15.5651,0 -24.2123,-4.3236 -24.6446,-12.5385 0,-4.756 -0.8648,-5.1883 -2.5942,-1.2971 -3.4589,9.0796 11.6737,22.4828 25.5093,22.4828 6.4854,0 12.1061,-1.7294 12.1061,-4.3236 z m 406.4198,-11.2414 c -7.7825,-9.0796 -10.3766,-4.3236 -3.4588,6.4854 3.0265,5.1883 6.053,7.3502 6.9178,4.756 0.8646,-2.5942 -0.8648,-7.3502 -3.459,-11.2414 z m 475.5977,2.1618 c 0,-7.7825 -7.7825,-3.8913 -9.9443,5.1883 -1.7295,6.9178 -1.2971,7.7826 3.8912,3.4589 3.459,-2.5941 6.0531,-6.4854 6.0531,-8.6472 z m -845.2667,4.756 c 1.2971,-2.1619 -1.2971,-4.3236 -6.4854,-4.3236 -5.1884,0 -7.7826,2.1617 -6.4855,4.3236 1.2971,2.5942 4.3236,4.3236 6.4855,4.3236 2.1617,0 5.1883,-1.7294 6.4854,-4.3236 z m 346.7539,-35.4537 c -0.8647,-7.7825 -1.7295,-2.5941 -1.7295,11.6738 0,14.2679 0.8648,20.7533 1.7295,14.2679 0.8647,-6.4854 0.8647,-18.1592 0,-25.9417 z m -37.6155,24.6447 c 4.756,-5.6208 4.3237,-6.0532 -1.7294,-3.8913 -3.8913,1.2971 -6.9178,4.3236 -6.9178,6.4854 0,5.6207 2.5941,4.7559 8.6472,-2.5941 z m 557.7464,-19.4563 c 0,-2.1618 -3.8912,-2.5942 -8.6473,-1.2971 -6.053,1.7294 -8.6471,6.0531 -8.6471,13.8356 l 0.4323,11.2414 8.2148,-10.3768 c 4.7561,-5.6207 8.6473,-11.6737 8.6473,-13.4031 z m -495.4863,-1.7295 c -2.5942,-6.9178 -10.3767,-9.9443 -10.3767,-3.4589 0,4.3237 9.512,14.2679 11.6738,12.1061 0.8647,-0.8646 0.4324,-4.7559 -1.2971,-8.6472 z m -44.9656,-5.1883 c 0,-3.4589 -2.1618,-5.1884 -4.3237,-3.8913 -2.5941,1.7295 -3.4588,4.756 -2.1617,6.9178 3.8912,6.0531 6.4854,4.756 6.4854,-3.0265 z m 486.839,-12.1062 c -8.2148,-12.5385 -9.0795,-29.4005 -2.1617,-42.3714 3.8912,-7.3501 3.4588,-8.2149 -3.4589,-6.9178 -12.5385,2.1619 -12.9709,31.1301 -0.4324,48.8569 11.2414,16.4297 16.8621,16.8621 6.053,0.4323 z m 66.1514,-5.6207 c 26.8064,-82.1486 35.0213,-140.0851 34.1565,-245.5813 l -0.8647,-86.4724 -2.5941,87.3372 c -2.1618,90.7959 -6.4854,111.1169 -17.7269,86.4722 -5.6207,-12.5384 -12.5385,-15.565 -12.5385,-5.1883 0,3.4589 3.8913,16.4298 8.6473,28.5359 5.6207,13.4032 8.6472,29.8329 7.7825,40.2096 -1.2971,15.565 -2.5942,17.7268 -12.1062,17.7268 -12.1061,0.4324 -12.5385,4.756 -3.4588,33.7242 4.3236,14.268 3.8912,17.2944 -4.3236,25.9417 -9.0796,9.5119 -13.4032,33.2918 -6.0531,33.2918 2.1618,0 6.0531,-7.3501 9.0796,-15.9974 z m -863.8584,-19.0239 c 14.7004,-3.4588 33.7243,-19.0239 28.9682,-23.3475 -0.8646,-1.2971 -9.5119,1.7294 -19.0238,6.0531 -9.0796,4.3236 -25.077,10.3766 -35.0213,12.9708 -10.3767,3.0265 -18.5915,6.9178 -18.5915,9.0796 0,3.8913 14.2679,2.5942 43.6684,-4.756 z m 322.9741,-15.5649 c -6.9178,-0.8648 -17.2945,-0.8648 -23.7799,0 -6.9178,0.8646 -1.297,1.7294 11.6738,1.7294 12.9709,0 18.5915,-0.8648 12.1061,-1.7294 z m -150.8942,-11.2415 c 3.8913,-3.4588 12.9709,-7.7825 19.8887,-9.9443 l 12.9708,-3.4589 -12.1061,-1.7294 c -6.9178,-0.8647 -16.8621,1.7294 -22.4828,5.1883 -15.1326,9.9443 -17.2945,9.0796 -47.9922,-13.4032 -26.8063,-19.4562 -32.4271,-28.1035 -23.3475,-33.7242 6.0531,-3.4589 30.2654,-46.2627 30.2654,-52.7481 0,-3.0266 -4.756,-0.4324 -10.8091,5.1883 -5.6207,6.0531 -13.4032,10.8091 -16.4297,10.8091 -3.4589,0 -12.9708,6.0531 -20.7534,13.4031 l -14.2679,13.4033 9.0796,6.9178 c 10.3767,8.6472 20.7534,27.6711 25.077,47.1274 1.2971,7.7825 6.053,16.4297 9.9443,18.5915 9.9442,6.0531 51.8834,2.1618 60.9629,-5.6207 z m 301.7884,-1.2971 c -1.2971,-1.297 -5.1883,-1.7294 -8.2149,-0.4324 -3.4588,1.2971 -2.1618,2.5942 2.5942,2.5942 4.756,0.4324 7.3502,-0.8647 5.6207,-2.1618 z m -124.0878,-16.4297 c 10.8091,-3.4589 28.9682,-10.3767 40.2097,-15.565 16.862,-7.3501 25.0769,-8.6472 42.8037,-6.4855 15.5651,2.1619 21.1858,1.7295 19.0239,-1.7293 -2.1617,-3.0265 -18.1591,-4.7561 -41.939,-4.7561 -30.2653,0 -38.4802,1.2971 -38.4802,6.0531 0,9.512 -24.2123,15.565 -63.9895,15.565 -38.9126,0 -65.719,-6.4854 -65.719,-15.9973 0,-4.3237 -9.0795,-5.6208 -34.5888,-5.6208 -27.2388,0 -34.589,1.2971 -34.589,6.0531 0,5.1884 2.5941,5.6207 12.9709,1.7294 14.7002,-4.7559 32.4271,-2.5942 53.1804,7.3502 43.2362,20.321 76.0956,24.2122 111.1169,13.4032 z m 390.4225,-5.6207 c -3.0266,-0.8647 -9.0796,-0.8647 -12.9709,0 -4.3236,1.2971 -1.7294,2.1618 5.1884,2.1618 7.3501,0 10.3767,-0.8647 7.7825,-2.1618 z m -271.523,-5.6207 c 1.2971,-2.5942 -0.4324,-3.0265 -3.8913,-1.7294 -7.7825,3.0265 -9.0796,6.053 -3.0265,6.053 2.5941,0 5.6207,-1.7294 6.9178,-4.3236 z m 26.8064,-19.8886 c 1.297,-3.4589 -0.8647,-9.9443 -4.3237,-13.8356 -3.8912,-4.3236 -12.1061,-19.0239 -18.5915,-32.8595 -9.9443,-22.4828 -11.2414,-28.9682 -9.5119,-60.5306 1.7294,-26.8064 4.7559,-40.2096 13.4032,-57.0717 15.565,-30.2653 21.618,-57.0717 16.4297,-73.0692 -3.4589,-11.6737 -3.8912,-9.9443 -4.3236,12.1062 -0.4324,19.0239 -2.1618,24.6446 -6.9178,24.6446 -3.8913,0 -6.4854,3.8913 -6.4854,10.8091 0,5.6206 -4.3237,19.4563 -9.512,30.2653 l -9.5119,19.4562 -32.4271,0.4324 c -42.3715,0.8647 -48.4245,0 -59.2335,-6.9178 -7.3502,-4.7559 -12.1062,-4.7559 -24.2123,-0.8647 -16.8621,6.053 -21.6181,12.9708 -9.512,15.565 4.3236,0.8648 25.5094,6.9178 46.6951,14.268 26.8063,8.6471 39.7773,11.2413 43.2361,7.7825 10.3767,-10.3767 38.0478,0.8646 30.6977,12.9708 -1.7294,2.5942 -25.077,4.756 -57.5041,5.1884 l -54.9099,0.8646 56.207,2.5942 c 48.8568,1.7295 56.207,3.0266 57.5041,9.9443 1.2971,6.4855 -3.8913,7.3502 -60.5307,8.2149 l -61.8276,0.8647 60.9629,1.2971 c 48.4245,1.2971 62.6925,3.0265 67.0161,8.2149 3.0265,3.8912 3.8913,7.7824 1.2971,10.3766 -2.1619,2.1619 -34.1566,4.756 -70.9073,5.6208 l -67.0161,1.2971 71.772,0.8647 c 68.3132,0.8647 81.7164,3.4588 81.7164,14.7003 0,1.7294 -36.3184,3.8913 -80.8516,4.7559 l -81.284,0.8648 82.5811,1.2971 c 81.7163,0.8647 92.5253,2.5941 92.5253,16.4297 0,2.5942 -3.8913,6.053 -9.0796,7.3501 -5.1883,1.2971 -7.7825,4.3237 -6.053,6.9178 3.4589,6.0531 19.0239,-1.7295 22.4828,-10.809 z m -348.9158,6.9178 c 0,-2.1618 -4.3236,-4.3237 -9.5119,-4.3237 -8.2149,0 -8.6472,0.8648 -3.4589,4.3237 8.2148,5.6207 12.9708,5.6207 12.9708,0 z m 189.3744,-3.0266 c -16.4298,-0.8646 -42.3715,-0.8646 -58.3688,0 -16.4298,0.8648 -3.0266,1.2971 28.9681,1.2971 31.9948,0 45.398,-0.4323 29.4007,-1.2971 z m -29.4007,-76.9603 c 0,-29.833 -0.8647,-54.0452 -2.1617,-54.0452 -1.2971,0 -7.3502,7.7825 -13.4032,17.2945 l -11.6738,17.2944 -58.8012,0.8648 -58.8011,0.8646 60.5306,2.5942 c 53.6128,1.7295 60.5306,3.0266 61.8277,9.9443 1.2971,7.3502 -2.5942,7.7825 -61.3953,6.4855 -40.2096,-0.8647 -63.1248,0.4323 -63.1248,3.0265 0,2.5942 22.4827,3.8912 61.3953,3.0265 63.5572,-0.8647 76.0956,1.2971 71.3396,14.268 -2.5941,6.4854 -10.809,6.9177 -72.2043,5.6207 -38.0479,-0.8648 -69.1779,0 -69.1779,2.1618 0,1.7294 33.2919,3.0265 73.5015,3.0265 46.2627,0 73.5015,1.7295 73.5015,4.3236 0,2.5942 0,5.6208 0,7.7825 0,1.7295 -36.3184,3.8912 -80.8517,5.1883 l -81.2839,2.5942 85.6076,0.8648 85.1751,0.8647 z m -218.3425,6.4854 c -1.2971,-2.1618 -7.3501,-4.3236 -13.4032,-4.3236 -6.053,0 -9.512,1.7294 -8.2149,4.3236 1.2971,2.5941 7.3502,4.3236 13.4032,4.3236 6.0531,0 9.512,-1.7295 8.2149,-4.3236 z m 486.4068,-47.5598 c 6.0529,-17.2944 6.0529,-21.618 1.297,-21.618 -9.512,0 -23.3475,-26.3741 -21.1857,-39.7773 4.3236,-22.9152 -15.1326,-7.7825 -20.7534,15.9974 -4.3236,17.2945 -14.7002,28.1035 -27.2388,28.1035 -10.8089,0 -18.5915,13.4032 -18.5915,31.13 0,8.2149 0.8648,8.2149 9.0796,-2.5942 10.809,-13.4031 21.6181,-14.2679 28.9682,-2.1618 4.3236,6.9178 7.3502,7.7825 10.8091,4.3236 7.7825,-7.7824 20.7533,-5.6207 23.3475,3.8913 3.0265,11.6738 5.1883,9.0797 14.268,-17.2945 z m -473.0036,13.8356 c 12.1061,-10.3767 16.4297,-39.3449 8.2149,-55.3423 -3.0265,-6.4854 -5.1884,-13.8355 -3.8913,-15.5651 1.2971,-2.1617 -0.8647,-7.7824 -5.1883,-12.9708 -6.4854,-6.9177 -7.7825,-14.2679 -6.9178,-38.4801 1.297,-36.7508 12.1061,-62.2601 32.8595,-80.8517 22.0505,-19.4562 41.0743,-26.374 81.7164,-29.4005 41.0742,-3.4589 76.0956,-17.2945 85.1751,-34.1565 9.9444,-18.5916 19.8886,-17.7269 40.2096,3.0264 20.321,21.1858 37.1832,27.2388 87.3371,31.5624 39.3449,3.0266 71.772,18.5916 89.0664,42.3715 6.9178,9.512 12.5386,19.4563 12.5386,22.0505 0,2.5941 3.8912,12.1061 8.6472,21.1856 4.7559,8.6473 8.6472,19.024 8.6472,22.4828 0,3.4589 1.2971,6.4854 3.0265,6.4854 6.4854,0 18.5916,-14.7002 18.5916,-22.4828 0,-13.8355 12.5384,-34.1565 20.7533,-32.8594 5.1884,0.8647 7.7825,-2.1618 8.6473,-11.6738 2.5941,-29.4005 5.6207,-41.0744 11.6737,-41.0744 3.4589,0 8.2149,3.459 10.3767,7.7826 3.4589,6.053 4.3236,4.3236 4.756,-8.6472 0,-8.6473 2.1618,-17.2945 4.3236,-18.5916 6.9178,-4.3236 17.2945,6.053 17.2945,16.8621 0,7.7825 1.2971,6.9178 8.6472,-4.7559 4.756,-7.7826 7.3501,-17.2945 5.6207,-21.1858 -3.0265,-7.7825 -12.9708,-6.9178 -59.6659,5.1884 -36.7507,9.5119 -119.7641,10.3766 -136.6263,1.2971 -5.6207,-3.0266 -14.2678,-5.6207 -18.5915,-6.0531 -4.756,-0.4324 -9.5119,-3.0266 -10.3767,-6.0531 -3.0265,-9.0796 -18.1591,-21.1857 -29.4006,-23.3475 -7.3501,-1.2971 -12.1061,0.8647 -16.862,8.2149 -7.7826,11.6737 -20.321,13.4032 -28.1036,3.8912 -6.4854,-7.7825 -2.5942,-19.4563 6.4855,-19.4563 8.2148,0 8.6472,-11.6737 0.4323,-19.8886 -7.3501,-6.9178 -22.4828,-8.2149 -26.374,-1.7295 -3.4589,5.6208 -44.1009,5.6208 -47.5598,0 -3.8912,-6.4854 -15.565,-5.1883 -24.6446,3.0266 -10.3767,9.0796 -9.9443,18.5915 0.8647,18.5915 6.4854,0 8.6473,3.0266 8.6473,10.8091 0,15.1326 -20.7534,20.3209 -29.4006,7.3501 -9.512,-14.2679 -25.5094,-12.1061 -41.9391,6.0531 -7.7825,8.2148 -16.8621,14.7003 -19.8887,14.2679 -3.4588,-0.8647 -10.809,1.2971 -16.4297,4.3237 -6.053,3.4588 -29.8329,6.4854 -59.6659,7.3501 -30.2652,1.297 -55.3422,4.3236 -64.8542,8.2148 -8.2149,3.459 -21.1857,6.4854 -28.5358,6.4854 -19.0239,0 -47.5598,15.1327 -65.2866,35.0214 -17.7269,19.4562 -18.5916,22.9152 -13.4032,67.8807 l 3.0265,26.8065 -14.7003,0.4323 c -13.4032,0.4324 -13.4032,0.8648 5.1884,4.756 10.3766,2.5942 29.4005,10.809 41.5066,18.5915 23.7799,15.565 60.5307,59.2336 55.7747,67.0161 -1.7295,2.5941 3.0265,4.3236 11.6738,4.7559 7.7825,0 18.1591,1.7295 22.9151,3.8913 14.2679,6.053 34.1566,4.3236 43.6685,-3.4589 z m 147.0029,-21.1857 c 21.6181,-6.4854 38.9125,-13.8356 38.9125,-16.4298 0,-2.1618 -6.9177,-6.4854 -15.1326,-9.5119 -12.5385,-4.3237 -16.4297,-4.3237 -22.0504,0.8647 -3.8913,3.4589 -10.809,6.4854 -15.5651,6.4854 -4.7559,0 -10.3766,4.3237 -12.5384,9.9443 -3.8913,8.2149 -8.2149,9.512 -31.1301,10.8091 -15.1326,0.8647 -27.2387,3.0266 -27.2387,5.1883 0,2.1619 5.6207,3.0266 12.5384,1.7295 7.3502,-1.7295 13.8357,-0.4324 15.5651,2.5942 1.7294,2.5941 6.4854,4.3236 10.3766,3.0265 3.8913,-1.2971 24.6446,-7.7825 46.2627,-14.7003 z m -35.0212,-15.9974 c 4.7559,-0.8647 -5.6208,-1.7294 -22.4829,-2.1618 -17.2945,0 -31.5623,0.8647 -31.5623,3.0265 0,2.5942 34.1565,2.1618 54.0452,-0.8647 z m 302.653,-18.1592 c 7.7825,-18.5915 7.7825,-19.0239 2.1618,-19.0239 -2.1618,0 -7.7825,7.7825 -12.5385,17.2945 -6.4854,13.8356 -6.9177,17.2944 -2.1618,17.2944 3.0265,0 9.0796,-6.9178 12.5385,-15.565 z m -201.0481,2.1618 c 3.4589,-4.756 16.8621,-23.3475 29.4006,-41.0743 19.0239,-26.3741 22.4828,-33.2918 18.1592,-38.4802 -3.4589,-4.3237 -4.756,-19.0239 -3.8913,-43.2362 0.8647,-20.3209 0.4324,-36.7507 -1.297,-36.7507 -2.1619,0 -3.459,21.1857 -3.459,47.1274 0,38.4802 -1.2971,47.5598 -6.4854,49.7216 -10.3766,3.8913 -11.6737,-6.053 -10.3766,-60.0983 1.297,-27.2388 0.4323,-49.7216 -1.2971,-49.7216 -2.1619,0 -3.459,26.8065 -3.459,60.0983 0,47.1274 -1.297,60.9629 -6.4854,65.2866 -3.4588,2.5942 -8.2148,3.8913 -10.809,2.1618 -6.0531,-3.8913 -6.0531,-143.544 0.4324,-147.4353 3.4588,-1.7294 3.4588,-3.8912 0,-7.3501 -2.5942,-2.5942 -6.0531,-3.4589 -7.3502,-1.7294 -1.7295,1.2971 -2.5942,38.9125 -2.1618,83.0134 0.8647,67.0159 0,79.9868 -5.1883,79.9868 -9.9443,0 -11.6738,-9.9442 -11.6738,-74.3662 0,-33.7242 -1.2971,-59.6659 -3.0266,-58.3688 -1.297,1.7295 -2.1617,28.1036 -1.7293,59.2336 0.8647,46.695 0,56.207 -5.1884,56.207 -13.4033,0 -16.4297,-11.6738 -15.1326,-57.9365 0.8647,-25.0769 0,-45.8303 -1.7295,-45.8303 -2.1618,0 -3.4589,19.4563 -3.4589,43.2361 0,23.7799 -1.7294,43.2362 -3.4589,43.2362 -9.0796,0 -13.8356,-12.9708 -14.7002,-40.642 l -0.8648,-30.6976 -1.2971,29.4005 -1.7294,29.4006 33.7242,47.1274 c 18.5915,25.9417 34.5888,47.1275 35.8859,47.5598 1.2971,0 5.1884,-3.8913 8.6473,-9.0796 z m -190.2391,-24.2123 c -6.053,-18.1591 -12.1061,-27.2388 -18.1591,-27.2388 -2.1619,0 0,5.6208 5.1883,12.5386 4.756,6.9178 8.2149,14.2679 7.7825,16.4298 -0.4324,1.7294 0.8647,8.2148 3.0266,14.2678 5.6207,17.2945 7.7825,1.7295 2.1617,-15.9974 z m 329.0272,-48.4244 c 0,-36.3184 -0.8648,-67.0161 -2.1619,-68.3132 -1.2971,-1.7294 -2.5941,28.9683 -2.5941,67.8808 0,38.9125 0.8647,69.6102 2.1618,68.7455 0.8647,-1.2971 2.1618,-31.5624 2.5942,-68.3131 z m -281.4674,-0.4324 c 0,-40.2096 -1.7295,-64.8542 -4.3236,-64.8542 -2.5942,0 -4.3236,24.6446 -4.3236,64.8542 0,40.2096 1.7294,64.8542 4.3236,64.8542 2.5941,0 4.3236,-24.6446 4.3236,-64.8542 z m 20.321,-28.9682 c -0.4324,-18.5915 -1.2971,-4.3236 -1.2971,31.13 0,35.8861 0.8647,51.0187 1.2971,33.7242 0.8647,-17.2945 0.8647,-46.2626 0,-64.8542 z m 27.2388,22.4828 c 0,-44.5333 -1.7295,-71.3397 -4.3237,-71.3397 -2.5942,0 -4.3236,26.8064 -4.3236,71.3397 0,44.5333 1.7294,71.3396 4.3236,71.3396 2.5942,0 4.3237,-26.8063 4.3237,-71.3396 z m 20.3209,44.5333 c -0.8646,-5.6208 -1.7294,-1.2971 -1.7294,9.5119 0,10.809 0.8648,15.1327 1.7294,9.9444 0.8648,-5.6208 0.8648,-14.268 0,-19.4563 z m 142.6794,-19.4564 c -0.8647,-9.0795 -1.7295,-1.7293 -1.7295,15.9974 0,17.7269 0.8648,25.077 1.7295,16.4298 0.8647,-9.0796 0.8647,-23.7799 0,-32.4272 z m 22.9151,-26.8064 c 0.4324,-38.4801 -0.4324,-71.3396 -1.7295,-72.6367 -1.297,-1.7294 -2.5941,31.13 -2.5941,72.2044 0,41.0743 0.8648,73.9338 2.1619,73.0691 0.8646,-1.2971 2.1617,-33.7242 2.1617,-72.6368 z m 26.8064,-19.0239 c 0.8648,-25.5093 0,-46.2627 -1.7294,-46.2627 -2.1618,0 -3.0265,31.5624 -2.5942,70.4749 0.8648,70.475 2.1618,62.2601 4.3236,-24.2122 z m -286.2233,71.7721 c 0,-8.6473 -1.2971,-10.3767 -4.756,-6.9178 -3.0265,3.0265 -3.8912,8.2148 -2.5941,11.6738 4.3236,10.3766 7.3501,8.2149 7.3501,-4.756 z m 378.7487,-47.1274 c -1.2971,-3.4589 -4.7559,-6.0531 -7.7825,-6.0531 -3.8912,0 -3.8912,1.2971 0,5.1884 3.0266,3.0264 5.6207,12.9708 6.053,22.9151 l 0.4324,17.2945 1.7295,-16.8622 c 1.2971,-9.0795 0.8647,-19.0239 -0.4324,-22.4827 z m -47.1274,-2.5942 c -0.8647,-5.6208 -1.7294,-2.1618 -1.7294,7.3501 -0.4324,9.512 0.4323,13.8356 1.7294,9.9443 0.8647,-4.3236 0.8647,-12.1061 0,-17.2944 z m 415.0671,-30.2654 c -0.8647,-5.6206 -1.7295,-2.1617 -1.7295,7.3503 -0.4323,9.5119 0.4324,13.8355 1.7295,9.9442 0.8647,-4.3236 0.8647,-12.1061 0,-17.2945 z m -1003.5111,6.4855 c 3.0265,-4.3236 6.053,-14.268 6.053,-21.6181 0,-14.7003 7.7825,-25.5093 28.9683,-38.9125 6.4854,-4.3236 23.3475,-15.9974 37.6154,-25.9417 15.5651,-11.6737 29.833,-18.5915 37.6154,-18.5915 21.1858,0 17.7269,-7.7825 -9.0795,-22.0505 -22.9152,-12.1061 -26.3741,-15.565 -24.2123,-23.7798 2.5942,-9.0797 1.7295,-9.512 -12.5385,-7.3502 -15.5649,2.5941 -26.374,-3.4589 -54.0451,-29.4006 -5.6208,-5.6207 -19.024,-14.7003 -28.9683,-20.321 l -18.5915,-9.9443 -4.756,10.809 c -7.3501,15.5651 -1.2971,40.2097 11.6738,48.4245 5.6207,3.8913 12.1061,5.6207 13.8356,3.8913 1.7294,-1.7295 0.4323,-4.3236 -2.1619,-5.1884 -8.6472,-3.0265 -6.4854,-22.0504 3.0265,-27.2387 10.3767,-5.6207 23.3476,0 30.6977,13.4032 4.756,9.5119 -1.7294,34.1565 -9.5119,34.1565 -2.1618,0 -3.8913,2.5942 -3.8913,5.6207 0,11.6738 -9.512,15.9974 -21.6181,9.512 -6.4854,-3.4589 -15.565,-5.1884 -20.321,-3.8913 -9.9442,2.5942 -22.9151,-8.2149 -22.9151,-19.8886 0,-4.3236 -2.5942,-12.9709 -6.053,-19.4563 l -6.0531,-11.6737 -6.4855,9.9443 c -9.5119,15.9974 -16.8621,63.9895 -12.9708,83.4458 3.0265,14.2679 6.0531,17.7268 17.2945,20.7533 18.5915,4.756 55.7746,39.3449 61.8276,57.504 5.6208,17.2945 7.7825,18.1593 15.5651,7.7826 z m 495.0539,-21.6181 c 0.4323,-15.1326 -0.4324,-28.5359 -1.7294,-30.2653 -1.7295,-1.2971 -3.0266,11.6737 -3.0266,28.9682 0,38.0478 3.0266,38.9126 4.756,1.2971 z m 260.2817,25.9417 c -3.0266,-0.8647 -9.0796,-0.8647 -12.9709,0 -4.3236,1.2971 -1.7294,2.1618 5.1884,2.1618 7.3501,0 10.3767,-0.8647 7.7825,-2.1618 z m -498.5129,-10.3766 c 0,-4.7561 -1.7294,-7.3502 -4.3236,-6.0531 -2.1618,1.297 -4.3236,5.6206 -4.3236,9.0796 0,3.4589 2.1618,6.053 4.3236,6.053 2.5942,0 4.3236,-3.8912 4.3236,-9.0795 z m 341.5656,5.6207 c 0,-2.1619 -3.0265,-7.3503 -6.4854,-12.1061 -6.053,-7.7826 -6.053,-7.7826 -6.4854,3.8912 0,7.3501 2.1618,11.6737 6.4854,11.6737 3.4589,0 6.4854,-1.7294 6.4854,-3.4588 z m -294.0058,-39.7774 c 0,-2.1617 -2.1618,-4.3236 -4.756,-4.3236 -2.1618,0 -3.0265,2.1619 -1.7294,4.3236 1.2971,2.5942 3.4588,4.3237 4.7559,4.3237 0.8647,0 1.7295,-1.7295 1.7295,-4.3237 z m 47.5597,-8.6472 c 0,-2.1618 -0.8646,-4.3236 -1.7294,-4.3236 -1.2971,0 -3.4589,2.1618 -4.756,4.3236 -1.2971,2.5942 -0.4324,4.3236 1.7295,4.3236 2.5942,0 4.7559,-1.7294 4.7559,-4.3236 z m -205.804,-45.8303 c 3.8912,-10.3766 -0.4325,-12.9708 -9.0796,-5.1883 -4.3237,3.8912 -10.8091,7.7825 -14.268,9.0795 -3.4588,1.2971 -0.4323,2.5942 6.9178,2.5942 9.0796,0.4324 14.7003,-2.1618 16.4298,-6.4854 z m 556.0169,-16.4297 c 0,-0.8647 -3.0266,-2.5942 -6.4854,-4.3236 -3.459,-1.2971 -6.4854,-0.4324 -6.4854,1.7294 0,2.5942 3.0264,4.3236 6.4854,4.3236 3.4588,0 6.4854,-0.8647 6.4854,-1.7294 z m 30.2653,-11.2414 c 0,-2.1618 -0.8647,-4.3236 -1.7294,-4.3236 -1.2971,0 -3.4589,2.1618 -4.756,4.3236 -1.2971,2.5942 -0.4324,4.3236 1.7294,4.3236 2.5942,0 4.756,-1.7294 4.756,-4.3236 z m 24.6446,-8.6472 c 0,-10.3767 -1.2971,-11.6738 -6.053,-8.2149 -6.9179,6.0531 -7.3502,15.565 0,18.1592 2.5941,1.2971 5.1883,2.5942 5.6207,2.5942 0,0.4323 0.4323,-5.1884 0.4323,-12.5385 z m -482.9478,-0.4324 c 0,-4.3236 -29.4006,-21.1857 -36.7507,-21.1857 -11.2415,0 -52.3158,-17.2945 -61.8278,-25.9417 -9.5119,-8.6472 -26.8063,-11.6737 -26.8063,-4.756 0,8.2149 32.8595,31.1301 50.5863,35.4536 9.9442,2.5942 21.1857,8.2149 24.6445,12.1062 4.756,5.1883 13.4033,7.3501 28.5359,7.3501 11.6738,0 21.6181,-1.2971 21.6181,-3.0265 z m 345.8892,-4.756 c 6.053,-3.8912 16.8621,-8.6472 23.7799,-10.3767 14.2679,-3.4589 54.0452,-30.2653 54.0452,-36.7507 0,-7.3501 -17.7269,-3.8912 -31.5624,6.4854 -7.7826,5.6208 -24.6446,13.8356 -37.6155,18.1592 -36.3183,11.6738 -55.7746,20.7534 -56.2069,25.5094 0,6.9177 35.4536,4.7559 47.5597,-3.0266 z m -264.1729,-42.8037 c 19.4563,-19.4563 34.5889,-35.8861 33.7242,-37.1832 -1.2971,-0.8646 -20.321,-0.4323 -42.3714,1.2971 -22.4829,1.7295 -38.0478,3.8913 -35.0213,5.1883 9.5119,3.0266 15.1326,18.1593 9.5119,25.0771 -4.3235,4.7559 -3.8912,6.4854 1.7294,8.6471 3.8913,1.2971 6.9179,6.9178 6.9179,12.5385 0,10.3767 -10.3766,17.2945 -18.1592,12.1062 -3.0265,-1.2971 -3.4589,-0.4324 -1.7295,2.1618 1.7295,3.0265 4.756,5.1883 6.9179,5.1883 1.7293,0 19.4562,-15.9974 38.4801,-35.0212 z m 180.2947,30.2652 c 1.7295,-3.0265 0,-3.8912 -6.053,-2.1617 -12.9709,4.3235 -20.7534,-11.2415 -10.809,-21.1858 5.6207,-6.053 6.053,-9.0796 2.1617,-15.565 -4.3236,-6.4854 -3.0265,-9.0796 5.6208,-15.9973 l 10.3766,-8.2149 -39.3449,-3.0266 c -21.6181,-1.7294 -39.7772,-2.1617 -40.642,-1.2971 -1.2971,0.8647 8.2149,12.5386 20.7534,25.9418 12.5385,12.9708 27.2388,28.9681 32.4271,35.0212 10.3767,11.6737 20.321,14.2679 25.5093,6.4854 z m -282.7644,-41.5066 c 12.9708,-11.6738 9.0796,-15.5651 -12.5384,-12.5386 -33.7242,4.7561 -44.5333,7.3502 -44.5333,11.2415 0,6.053 22.9152,12.5385 36.3183,10.3766 6.9179,-0.8647 16.4298,-5.1883 20.7534,-9.0795 z m 288.8175,7.3501 c 0,-2.1618 -1.7294,-4.3236 -4.3236,-4.3236 -2.1618,0 -4.3236,2.1618 -4.3236,4.3236 0,2.5942 2.1618,4.3236 4.3236,4.3236 2.5942,0 4.3236,-1.7294 4.3236,-4.3236 z m 92.093,-0.4324 c 28.9683,-7.7825 19.8886,-13.8355 -29.4005,-19.0239 l -25.9417,-2.5941 14.2679,12.9708 c 15.565,14.7003 17.7268,15.1326 41.0743,8.6472 z m -711.2347,-9.5119 c 2.5942,-3.0266 3.0265,-7.7825 1.2971,-11.2414 -3.8913,-5.6208 -5.6207,-3.8913 -10.3767,9.5119 -3.0265,8.6473 2.5942,9.9444 9.0796,1.7295 z m 859.5348,-0.8648 c 3.8912,-3.4588 4.7559,-6.4854 2.5941,-6.4854 -2.1618,0 -6.4854,3.0266 -9.5119,6.4854 -3.0266,3.459 -3.8913,6.4855 -2.5942,6.4855 1.7294,0 6.053,-3.0265 9.512,-6.4855 z m -687.0225,-11.6737 c -1.2971,-3.4589 -2.5942,-2.1618 -2.5942,2.5941 -0.4324,4.7561 0.8647,7.3502 2.1618,5.6208 1.2971,-1.2971 1.7294,-5.1884 0.4324,-8.2149 z m -73.9338,-27.6712 c -2.1619,-5.6206 -24.2123,-9.0796 -24.2123,-3.4589 0,1.7295 5.1884,7.3502 12.1062,12.9709 9.5119,8.6472 12.1061,9.0796 12.9708,3.4589 0.8647,-3.4589 0.4324,-9.5119 -0.8647,-12.9709 z m 114.5757,9.9444 c -4.3236,-3.8913 -4.7559,-3.4589 -2.1618,2.5941 1.2971,4.3236 3.8913,6.4854 5.1883,5.1883 1.2971,-1.297 0,-4.7559 -3.0265,-7.7824 z m 712.5318,-12.9708 c 0.4324,-2.1619 -4.7559,-3.0266 -11.2414,-2.1619 -9.512,0.8648 -12.5384,3.8913 -13.4032,13.8356 l -1.7294,12.5385 13.4032,-10.3767 c 6.9178,-5.6207 12.9708,-12.1061 12.9708,-13.8355 z m -178.1329,0.4323 c -1.2971,-3.0265 -2.1618,-0.8648 -2.1618,5.1883 0,6.0531 0.8647,8.2149 2.1618,5.6207 0.8647,-3.0265 0.8647,-8.2149 0,-10.809 z m -588.8764,-10.809 c 1.7294,-11.2415 6.4855,-27.6712 11.2414,-36.7508 10.3767,-20.7534 10.3767,-22.4828 -2.5942,-29.4005 -8.6472,-4.3237 -12.1061,-4.7561 -15.9973,-0.8648 -3.8913,3.8912 -3.0266,5.1883 3.8912,5.1883 20.321,0 13.4032,36.7508 -8.2149,42.3715 -5.6207,1.2971 -7.3501,4.3236 -5.1883,9.0796 1.7295,3.8912 3.8913,12.1061 5.1883,19.0239 3.0266,17.7268 8.2149,13.8355 11.6738,-8.6472 z m 692.6432,17.7268 c -1.2971,-1.7295 0,-9.512 3.4588,-17.7268 7.7826,-18.5916 8.2149,-17.2945 -1.7294,-19.8887 -21.1857,-5.1883 -28.1036,-41.9391 -7.7825,-41.9391 6.9177,0 7.7825,-1.2971 3.8912,-5.1883 -3.8912,-3.8913 -7.3501,-3.4589 -15.9973,0.8648 -12.9708,6.9177 -12.9708,8.6471 -2.1618,30.6976 4.3236,9.9443 9.5119,26.3741 11.2414,36.7508 1.2971,10.3766 4.7559,19.0238 7.3501,19.0238 2.5941,0 3.4589,-1.2971 1.7295,-2.5941 z m -725.0703,-19.0239 c -2.5942,-4.756 -6.4854,-7.7825 -8.6472,-6.4854 -2.5942,1.7294 -0.8648,7.3501 3.0265,13.8355 8.2148,12.5385 12.9709,6.4854 5.6207,-7.3501 z m 756.6327,-3.8913 c -0.4324,-5.6207 -1.7295,-5.1883 -6.4855,1.2971 -3.4589,4.756 -6.4854,11.6738 -6.4854,15.1326 0.4324,5.6208 1.7294,5.1884 6.4854,-1.2971 3.4589,-4.7559 6.4855,-11.6737 6.4855,-15.1326 z m -679.24,9.9443 c 0.8647,-0.8647 -0.4324,-6.4854 -3.0265,-12.5384 -3.0265,-6.0531 -5.1884,-15.565 -5.1884,-20.7534 -0.4323,-9.0796 -0.4323,-9.512 -6.4854,-1.2971 -3.4588,4.756 -6.4854,15.9974 -6.4854,25.5093 0,15.1327 0.8647,16.4298 9.9443,13.4033 5.1884,-1.2971 10.3767,-3.459 11.2414,-4.3237 z m 185.0507,-2.5942 c -1.2971,-3.4588 -2.5941,-2.1617 -2.5941,2.5942 -0.4324,4.756 0.8647,7.3502 2.1617,5.6208 1.2971,-1.2971 1.7295,-5.1884 0.4324,-8.215 z m 429.335,-4.3236 c -0.4323,-7.7825 -3.0265,-19.0239 -6.0531,-24.6446 l -5.6206,-10.3767 -2.5942,12.5386 c -1.2971,6.9177 -3.4589,16.8621 -5.1883,22.0504 -3.0265,8.6472 0,11.2414 16.4297,13.8355 1.7294,0 3.0265,-6.053 3.0265,-13.4032 z m -322.5417,2.5942 c 1.2971,-3.4589 0.8647,-5.1883 -1.7295,-3.8913 -2.5941,1.2971 -4.3235,4.3237 -4.3235,6.9178 0,6.0531 3.0264,4.756 6.053,-3.0265 z m -24.6446,-11.2414 c -1.2971,-3.0265 -2.1618,-0.8647 -2.1618,5.1883 0,6.0531 0.8647,8.2149 2.1618,5.6208 0.8648,-3.0266 0.8648,-8.2149 0,-10.8091 z m 95.1195,0 c -1.297,-3.0265 -2.1617,-0.8647 -2.1617,5.1883 0,6.0531 0.8647,8.2149 2.1617,5.6208 0.8648,-3.0266 0.8648,-8.2149 0,-10.8091 z m -271.523,-3.8913 c 25.077,-4.3236 45.8303,-8.2148 46.2627,-8.2148 2.1618,0 -6.4854,-34.1566 -10.809,-42.3715 -5.6207,-10.3766 -6.4854,-10.3766 -30.6977,-2.5941 -3.8913,1.2971 -11.2414,-1.7295 -16.8622,-6.4855 -5.6206,-5.1883 -15.5649,-9.0796 -21.618,-9.0796 h -11.2414 l 12.1062,10.8091 c 6.4854,6.0531 11.6737,12.1061 11.6737,13.4032 0,7.3502 -10.3767,19.8886 -20.7534,25.077 -14.7002,7.7825 -24.6446,3.0265 -21.1856,-9.9443 1.297,-6.0531 0,-9.0796 -3.459,-9.0796 -9.5119,0 -10.3767,4.7559 -5.1884,29.4005 4.7561,21.6181 5.6208,22.9152 15.9975,20.321 5.6207,-1.7294 31.13,-6.4854 55.7746,-11.2414 z m 483.3802,-9.0796 c 4.756,-24.2122 4.3236,-29.4005 -4.756,-29.4005 -3.4589,0 -5.1884,3.8913 -3.8913,10.3767 3.0266,14.2679 -8.2148,16.8621 -25.5093,5.6206 -17.2945,-11.6737 -20.7533,-26.374 -8.2149,-33.2918 5.1884,-2.5942 9.0797,-6.4854 9.0797,-8.6472 0,-7.3502 -15.5651,-4.756 -26.3741,4.7559 -6.4854,5.6208 -12.9708,7.7826 -19.0239,6.0531 -28.9682,-9.0796 -28.5359,-9.5119 -36.3183,28.9682 -3.459,15.9975 -3.459,16.4298 12.1061,19.0239 8.6472,1.7295 31.9946,6.0531 52.3157,10.3767 20.321,4.3236 38.9126,7.7825 41.5068,8.2149 2.1617,0 6.4854,-9.9443 9.0795,-22.0505 z m -635.5714,-22.9151 c -3.0265,-5.6207 -6.0531,-8.6472 -6.4855,-6.0531 -2.1617,6.0531 2.5942,16.8621 7.3502,16.8621 2.1618,0 1.7295,-4.756 -0.8647,-10.809 z m 722.476,-4.756 c -1.7294,-1.2971 -5.1882,2.1619 -7.7824,7.7825 -5.1884,9.512 -5.1884,9.512 2.5942,2.5942 4.3236,-4.3236 6.4853,-8.6472 5.1882,-10.3767 z"
             id="path6"
             style="fill:#ffffff;fill-opacity:1;stroke-width:0.43236" />
        </g>
      </g>
    </g>
  </g>
</svg>
